<svg width="32" height="32" viewBox="0 0 32 32" fill="none" xmlns="http://www.w3.org/2000/svg">
<path d="M5.84301 0C2.60624 0 0 2.60623 0 5.843V26.157C0 29.3937 2.60624 32 5.84301 32H16.853V19.49H13.545V14.986H16.853V11.138C16.853 8.1148 18.8076 5.339 23.31 5.339C25.133 5.339 26.481 5.514 26.481 5.514L26.375 9.72001C26.375 9.72001 25.0002 9.70702 23.5 9.70702C21.8764 9.70702 21.616 10.4551 21.616 11.697V14.986H26.504L26.291 19.49H21.616V32H26.157C29.3938 32 32 29.3938 32 26.157V5.84303C32 2.60627 29.3938 3.19999e-05 26.157 3.19999e-05H5.84298L5.84301 0Z" fill="white"/>
</svg>
