<svg width="34" height="34" viewBox="0 0 34 34" fill="none" xmlns="http://www.w3.org/2000/svg">
<path fill-rule="evenodd" clip-rule="evenodd" d="M9.99136 0.102C11.8042 0.0185454 12.3822 0 17 0C21.6178 0 22.1958 0.0200909 24.0071 0.102C25.8184 0.183909 27.0547 0.472909 28.1365 0.891727C29.2694 1.31982 30.2971 1.989 31.1471 2.85445C32.0125 3.70291 32.6802 4.72909 33.1067 5.86345C33.5271 6.94527 33.8145 8.18164 33.898 9.98982C33.9815 11.8057 34 12.3837 34 17C34 21.6178 33.9799 22.1958 33.898 24.0086C33.8161 25.8168 33.5271 27.0532 33.1067 28.135C32.6802 29.2695 32.0114 30.2974 31.1471 31.1471C30.2971 32.0125 29.2694 32.6802 28.1365 33.1067C27.0547 33.5271 25.8184 33.8145 24.0102 33.898C22.1958 33.9815 21.6178 34 17 34C12.3822 34 11.8042 33.9799 9.99136 33.898C8.18318 33.8161 6.94682 33.5271 5.865 33.1067C4.73051 32.6801 3.70263 32.0114 2.85291 31.1471C1.98804 30.2981 1.31876 29.2707 0.891727 28.1365C0.472909 27.0547 0.185455 25.8184 0.102 24.0102C0.0185454 22.1943 0 21.6163 0 17C0 12.3822 0.0200909 11.8042 0.102 9.99291C0.183909 8.18164 0.472909 6.94527 0.891727 5.86345C1.31939 4.72922 1.98918 3.70185 2.85445 2.85291C3.70297 1.98823 4.72982 1.31896 5.86345 0.891727C6.94527 0.472909 8.18164 0.185455 9.98982 0.102H9.99136ZM23.8695 3.162C22.0768 3.08009 21.539 3.06309 17 3.06309C12.461 3.06309 11.9232 3.08009 10.1305 3.162C8.47218 3.23773 7.57273 3.51436 6.97309 3.74773C6.18027 4.05682 5.61309 4.42309 5.01809 5.01809C4.45407 5.56681 4.02001 6.2348 3.74773 6.97309C3.51436 7.57273 3.23773 8.47218 3.162 10.1305C3.08009 11.9232 3.06309 12.461 3.06309 17C3.06309 21.539 3.08009 22.0768 3.162 23.8695C3.23773 25.5278 3.51436 26.4273 3.74773 27.0269C4.01973 27.7641 4.454 28.4333 5.01809 28.9819C5.56673 29.546 6.23591 29.9803 6.97309 30.2523C7.57273 30.4856 8.47218 30.7623 10.1305 30.838C11.9232 30.9199 12.4595 30.9369 17 30.9369C21.5405 30.9369 22.0768 30.9199 23.8695 30.838C25.5278 30.7623 26.4273 30.4856 27.0269 30.2523C27.8197 29.9432 28.3869 29.5769 28.9819 28.9819C29.546 28.4333 29.9803 27.7641 30.2523 27.0269C30.4856 26.4273 30.7623 25.5278 30.838 23.8695C30.9199 22.0768 30.9369 21.539 30.9369 17C30.9369 12.461 30.9199 11.9232 30.838 10.1305C30.7623 8.47218 30.4856 7.57273 30.2523 6.97309C29.9432 6.18027 29.5769 5.61309 28.9819 5.01809C28.4332 4.45411 27.7652 4.02005 27.0269 3.74773C26.4273 3.51436 25.5278 3.23773 23.8695 3.162ZM14.8286 22.2406C16.0413 22.7454 17.3916 22.8136 18.6489 22.4334C19.9062 22.0532 20.9925 21.2483 21.7223 20.1562C22.4521 19.0641 22.7801 17.7524 22.6503 16.4453C22.5204 15.1383 21.9408 13.9168 21.0105 12.9895C20.4174 12.3968 19.7002 11.943 18.9107 11.6607C18.1212 11.3784 17.2788 11.2746 16.4444 11.357C15.61 11.4393 14.8041 11.7055 14.085 12.1367C13.3658 12.5678 12.7511 13.153 12.2853 13.8501C11.8194 14.5473 11.5139 15.3391 11.3908 16.1685C11.2677 16.9979 11.33 17.8443 11.5732 18.6467C11.8164 19.4491 12.2346 20.1877 12.7975 20.8091C13.3604 21.4306 14.0541 21.9195 14.8286 22.2406ZM10.8213 10.8213C11.6327 10.0099 12.5959 9.36623 13.6561 8.9271C14.7162 8.48798 15.8525 8.26196 17 8.26196C18.1475 8.26196 19.2838 8.48798 20.3439 8.9271C21.4041 9.36623 22.3673 10.0099 23.1787 10.8213C23.9901 11.6327 24.6338 12.5959 25.0729 13.6561C25.512 14.7162 25.738 15.8525 25.738 17C25.738 18.1475 25.512 19.2838 25.0729 20.3439C24.6338 21.4041 23.9901 22.3673 23.1787 23.1787C21.54 24.8174 19.3175 25.738 17 25.738C14.6825 25.738 12.46 24.8174 10.8213 23.1787C9.18257 21.54 8.26196 19.3175 8.26196 17C8.26196 14.6825 9.18257 12.46 10.8213 10.8213ZM27.676 9.56327C27.8771 9.3736 28.038 9.14551 28.1494 8.8925C28.2607 8.6395 28.3202 8.36673 28.3242 8.09035C28.3282 7.81396 28.2768 7.53957 28.1728 7.28343C28.0689 7.02729 27.9147 6.79461 27.7192 6.59915C27.5238 6.4037 27.2911 6.24944 27.0349 6.14553C26.7788 6.04161 26.5044 5.99014 26.228 5.99417C25.9516 5.9982 25.6789 6.05765 25.4259 6.16898C25.1729 6.28032 24.9448 6.44129 24.7551 6.64236C24.3862 7.03341 24.1842 7.55282 24.1921 8.09035C24.1999 8.62787 24.4169 9.14118 24.7971 9.5213C25.1772 9.90143 25.6905 10.1184 26.228 10.1263C26.7655 10.1341 27.285 9.93216 27.676 9.56327Z" fill="white"/>
</svg>
