<svg width="140" height="140" viewBox="0 0 140 140" fill="none" xmlns="http://www.w3.org/2000/svg">
    <path d="M11.0341 119.224C10.817 119.22 10.6015 119.262 10.401 119.345C10.2123 119.423 10.0358 119.528 9.87705 119.656C9.54017 120.003 9.29298 120.426 9.15694 120.889C8.95466 121.465 8.75238 122.144 8.5501 122.931L4.04532 139.695C3.43848 139.709 2.8721 139.737 2.36437 139.782C1.86528 139.823 1.36934 139.895 0.879639 140L4.96165 124.81C5.21912 123.752 5.59008 122.724 6.06812 121.744C6.42374 121.014 6.92484 120.364 7.54072 119.834C7.96374 119.501 8.44337 119.246 8.95668 119.082C9.49688 118.911 10.0608 118.827 10.6275 118.832C11.5445 118.832 12.2545 119.021 12.7575 119.4C12.9979 119.573 13.1921 119.803 13.3233 120.069C13.4544 120.335 13.5185 120.629 13.51 120.926C13.495 121.412 13.2928 121.873 12.9456 122.213C12.7626 122.414 12.538 122.572 12.2875 122.677C12.037 122.781 11.7666 122.83 11.4953 122.82C11.133 122.838 10.7756 122.73 10.4839 122.514C10.3555 122.409 10.2537 122.276 10.1869 122.124C10.1201 121.972 10.0902 121.807 10.0996 121.641C10.0955 121.173 10.2542 120.718 10.5486 120.354C10.8708 119.959 11.2988 119.664 11.7825 119.503C11.6841 119.408 11.5677 119.334 11.4402 119.285C11.3127 119.236 11.1767 119.213 11.0402 119.218L11.0341 119.224ZM3.06224 125.051L3.19372 124.614H10.4212L10.2917 125.051H3.06224Z" fill="#241F20" />
    <path d="M23.4401 128.237C22.9998 129.586 22.4818 130.909 21.8886 132.198C21.4998 133.058 21.0102 133.869 20.4302 134.613C20.0398 135.12 19.5452 135.537 18.9798 135.836C18.4897 136.075 17.9513 136.198 17.4061 136.196C16.4877 136.196 15.891 135.905 15.6159 135.323C15.3408 134.741 15.3772 133.932 15.7251 132.897L17.843 126.46C17.9886 126.037 18.021 125.75 17.9401 125.597C17.9059 125.526 17.8517 125.466 17.7841 125.426C17.7165 125.385 17.6386 125.365 17.5598 125.368C17.3163 125.393 17.0902 125.506 16.9247 125.686C16.6914 125.896 16.4439 126.368 16.1823 127.101L15.7959 128.146H15.3732L15.9193 126.553C16.2389 125.635 16.6752 125.029 17.2281 124.734C17.7236 124.458 18.2793 124.308 18.8463 124.297C19.5017 124.297 19.9899 124.439 20.3108 124.724C20.4754 124.877 20.6068 125.063 20.6969 125.269C20.787 125.475 20.8339 125.697 20.8347 125.922C20.847 126.551 20.7434 127.176 20.5293 127.768L18.5692 133.672C18.2496 134.632 18.3224 135.112 18.7877 135.111C19.1376 135.111 19.5361 134.832 19.9892 134.272C20.5349 133.564 21.0092 132.803 21.4052 132.002C21.9377 130.952 22.4104 129.872 22.8211 128.768C23.2782 127.538 23.6719 126.285 24.0004 125.015L23.4401 128.237ZM24.5102 134.041C24.4223 134.305 24.3779 134.582 24.3787 134.86C24.3928 135.042 24.5183 135.133 24.7488 135.133C24.8914 135.127 25.0309 135.089 25.1575 135.023C25.284 134.957 25.3945 134.864 25.4811 134.751C25.7836 134.348 26.0098 133.893 26.1486 133.409L26.5532 132.295H26.9679L26.3772 133.955C26.0859 134.814 25.6712 135.404 25.1332 135.723C24.6271 136.033 24.0458 136.199 23.4522 136.202C23.1094 136.211 22.7691 136.142 22.457 136C22.2022 135.881 21.9868 135.692 21.836 135.454C21.6839 135.147 21.6195 134.804 21.6499 134.462C21.6799 134.017 21.7475 133.575 21.8522 133.142L24.0712 124.614C24.6673 124.601 25.2316 124.572 25.7643 124.528C26.2602 124.488 26.7529 124.415 27.2389 124.309L24.5102 134.041Z" fill="#241F20" />
    <path d="M36.8474 135.897H33.7687L36.4327 126.47C36.5228 126.199 36.5565 125.913 36.5318 125.629C36.5184 125.552 36.4756 125.482 36.4122 125.436C36.3489 125.389 36.27 125.368 36.192 125.378C36.051 125.384 35.9132 125.422 35.7886 125.488C35.6639 125.554 35.5557 125.647 35.4719 125.76C35.1706 126.169 34.9352 126.622 34.774 127.103L34.3573 128.214H33.9528L34.5434 126.557C34.8482 125.699 35.2669 125.109 35.7996 124.788C36.3298 124.469 36.9383 124.303 37.5574 124.309C38.1986 124.309 38.6376 124.469 38.8783 124.788C39.1254 125.13 39.252 125.545 39.2383 125.967C39.2373 126.438 39.1789 126.908 39.0644 127.365L36.8474 135.897ZM42.4384 124.78C42.109 124.791 41.7871 124.881 41.4998 125.043C41.0957 125.28 40.7462 125.6 40.4743 125.981C40.0438 126.568 39.6738 127.197 39.3698 127.859C38.9082 128.853 38.5142 129.877 38.1905 130.925C37.786 132.168 37.3747 133.67 36.9566 135.43L37.438 132.485C37.9033 130.884 38.3254 129.56 38.7043 128.513C39 127.646 39.3836 126.811 39.8492 126.021C40.1506 125.493 40.5693 125.042 41.073 124.701C41.5177 124.436 42.0278 124.3 42.5456 124.309C42.7873 124.294 43.0295 124.331 43.2556 124.417C43.4818 124.504 43.6867 124.638 43.8564 124.811C44.1662 125.159 44.3305 125.612 44.3156 126.078C44.3255 126.663 44.1146 127.231 43.7249 127.669C43.5443 127.886 43.317 128.059 43.0599 128.177C42.8029 128.294 42.5227 128.352 42.2402 128.346C42.0621 128.357 41.8835 128.333 41.7148 128.275C41.546 128.217 41.3905 128.127 41.2571 128.008C41.1351 127.879 41.041 127.726 40.9808 127.559C40.9206 127.393 40.8955 127.215 40.9071 127.038C40.9038 126.521 41.0952 126.022 41.4432 125.639C41.7748 125.248 42.2227 124.974 42.7216 124.855L42.5901 124.811C42.541 124.795 42.4898 124.788 42.4384 124.788V124.78Z" fill="#241F20" />
    <path d="M52.682 135.897H49.6033L52.245 126.47C52.3132 126.293 52.362 126.109 52.3907 125.922C52.418 125.789 52.3988 125.651 52.3361 125.53C52.299 125.479 52.2491 125.44 52.1915 125.415C52.1339 125.39 52.0707 125.381 52.0084 125.389C51.8711 125.392 51.7363 125.427 51.6138 125.489C51.4914 125.551 51.3843 125.64 51.3004 125.748C51.0873 125.988 50.8581 126.443 50.6126 127.113L50.198 128.224H49.7813L50.3719 126.567C50.6632 125.738 51.0455 125.156 51.5189 124.821C52.0088 124.481 52.5937 124.306 53.1897 124.319C53.8882 124.319 54.3757 124.476 54.6522 124.788C54.9295 125.117 55.0738 125.537 55.0567 125.967C55.0569 126.444 54.9978 126.919 54.8807 127.382L52.682 135.897ZM53.3819 132.208C53.9509 130.624 54.4789 129.318 54.9657 128.291C55.3501 127.434 55.8335 126.625 56.4059 125.88C56.7934 125.372 57.2897 124.958 57.8583 124.667C58.357 124.434 58.9016 124.314 59.4523 124.317C60.1501 124.317 60.6538 124.469 60.9592 124.776C61.1143 124.936 61.235 125.127 61.3139 125.335C61.3929 125.544 61.4284 125.766 61.4184 125.989C61.4086 126.539 61.3131 127.085 61.1352 127.606L58.9931 134.043C58.8495 134.448 58.8131 134.735 58.8859 134.894C58.9173 134.971 58.9723 135.035 59.0428 135.079C59.1134 135.122 59.1958 135.142 59.2783 135.135C59.5205 135.109 59.7453 134.997 59.9114 134.82C60.1441 134.617 60.3929 134.138 60.6538 133.405L61.0483 132.358H61.4629L60.9148 133.95C60.5952 134.868 60.1589 135.474 59.606 135.77C59.1105 136.045 58.5548 136.195 57.9878 136.206C57.1564 136.206 56.5718 135.966 56.2401 135.487C56.0402 135.154 55.9451 134.77 55.967 134.383C55.9979 133.82 56.1117 133.265 56.3048 132.736L58.271 126.844C58.3545 126.625 58.4135 126.398 58.4469 126.167C58.4777 125.986 58.4701 125.801 58.4247 125.623C58.3802 125.478 58.2568 125.405 58.0525 125.405C57.7046 125.405 57.3041 125.681 56.8509 126.233C56.3075 126.927 55.8332 127.671 55.435 128.457C54.9014 129.483 54.4286 130.54 54.019 131.622C53.5686 132.8 53.1681 134.012 52.8175 135.26L53.3819 132.208Z" fill="#241F20" />
    <path d="M71.0004 126.47C71.2472 125.742 71.1683 125.378 70.7597 125.378C70.6178 125.385 70.4794 125.424 70.3546 125.492C70.2299 125.56 70.1222 125.655 70.0396 125.771C69.7465 126.177 69.5179 126.626 69.362 127.103L68.925 128.214H68.5104L69.1172 126.557C69.422 125.698 69.8441 125.109 70.3835 124.788C70.9185 124.47 71.5307 124.304 72.1534 124.309C72.8371 124.309 73.3246 124.469 73.6159 124.788C73.9073 125.111 74.0669 125.532 74.0629 125.967C74.0691 126.443 73.9917 126.916 73.8343 127.365L71.5405 134.035C71.4111 134.44 71.3767 134.708 71.4414 134.876C71.4717 134.957 71.5279 135.025 71.601 135.07C71.6742 135.116 71.7603 135.135 71.8459 135.127C72.088 135.102 72.3111 134.984 72.469 134.799C72.7036 134.585 72.9558 134.119 73.2255 133.401L73.6179 132.354H74.0225L73.4541 133.946C73.1479 134.834 72.7184 135.431 72.1655 135.735C71.6611 136.028 71.09 136.186 70.5069 136.194C69.8798 136.194 69.4044 136.057 69.0768 135.78C68.9074 135.629 68.7721 135.444 68.6797 135.237C68.5873 135.03 68.5399 134.806 68.5407 134.579C68.5279 133.947 68.6315 133.318 68.8462 132.724L71.0004 126.47ZM71.8318 120.97C71.8293 120.694 71.8897 120.421 72.0085 120.172C72.1273 119.922 72.3014 119.703 72.5175 119.531C72.9584 119.192 73.5025 119.014 74.0589 119.028C74.5034 118.997 74.9435 119.133 75.2928 119.41C75.4355 119.544 75.5446 119.709 75.611 119.894C75.6775 120.078 75.6994 120.275 75.6751 120.469C75.6664 120.737 75.5992 120.999 75.4783 121.239C75.3575 121.478 75.1857 121.688 74.9752 121.853C74.5319 122.213 73.9745 122.403 73.4035 122.389C72.9725 122.415 72.5474 122.279 72.2121 122.007C72.0718 121.876 71.9646 121.714 71.8992 121.534C71.8338 121.354 71.8121 121.16 71.8358 120.97H71.8318Z" fill="#241F20" />
    <path d="M84.1302 134.041C84.029 134.419 84.0412 134.696 84.1645 134.872C84.2278 134.959 84.3119 135.028 84.4092 135.074C84.5064 135.12 84.6136 135.14 84.7208 135.133C84.8968 135.122 85.0688 135.075 85.2266 134.997C85.3843 134.918 85.5246 134.808 85.6392 134.674C86.0057 134.265 86.2814 133.783 86.4483 133.259L86.776 132.366H87.1805L86.7436 133.631C86.4523 134.504 86.0269 135.152 85.4672 135.574C84.8897 136 84.1867 136.223 83.4687 136.206C82.4492 136.206 81.7864 135.869 81.4803 135.196C81.1742 134.522 81.1593 133.699 81.4358 132.728L84.7127 121.358C85.3398 121.344 85.9062 121.316 86.4159 121.271C86.9084 121.231 87.3977 121.158 87.8804 121.053L84.1302 134.041ZM89.3287 124.614L89.264 125.051H81.6846L81.7938 124.614H89.3287Z" fill="#241F20" />
    <path d="M102.388 128.236C101.949 129.586 101.432 130.909 100.838 132.198C100.452 133.061 99.9647 133.875 99.3861 134.624C98.9957 135.131 98.5003 135.548 97.9337 135.846C97.4437 136.085 96.9053 136.208 96.36 136.206C95.443 136.206 94.8463 135.915 94.5699 135.333C94.2934 134.751 94.3305 133.942 94.6811 132.908L96.7969 126.47C96.9446 126.047 96.977 125.76 96.8961 125.607C96.8617 125.536 96.8072 125.476 96.7392 125.435C96.6712 125.395 96.5929 125.375 96.5138 125.378C96.2709 125.403 96.0455 125.516 95.8806 125.696C95.6487 125.906 95.4012 126.378 95.1383 127.111L94.7458 128.146H94.3312L94.8753 126.553C95.1949 125.635 95.6338 125.033 96.1861 124.734C96.6816 124.458 97.2372 124.308 97.8043 124.297C98.4597 124.297 98.9478 124.439 99.2688 124.724C99.433 124.877 99.5641 125.063 99.6542 125.269C99.7443 125.475 99.7914 125.697 99.7927 125.922C99.8029 126.551 99.6994 127.176 99.4872 127.768L97.5211 133.659C97.2015 134.62 97.2743 135.1 97.7396 135.099C98.0895 135.099 98.488 134.82 98.9391 134.26C99.4862 133.553 99.9606 132.792 100.355 131.99C100.888 130.939 101.36 129.86 101.771 128.756C102.228 127.526 102.622 126.273 102.95 125.003L102.388 128.236ZM103.458 134.041C103.371 134.306 103.328 134.582 103.328 134.86C103.342 135.042 103.465 135.133 103.699 135.133C103.841 135.127 103.981 135.089 104.107 135.023C104.234 134.957 104.344 134.864 104.431 134.751C104.733 134.348 104.96 133.893 105.098 133.409L105.503 132.295H105.908L105.317 133.954C105.026 134.814 104.611 135.404 104.073 135.723C103.566 136.033 102.984 136.199 102.39 136.202C102.048 136.211 101.708 136.142 101.397 136C101.141 135.881 100.925 135.692 100.774 135.454C100.624 135.146 100.559 134.803 100.588 134.462C100.618 134.017 100.685 133.575 100.79 133.142L102.997 124.608C103.594 124.595 104.158 124.566 104.688 124.521C105.195 124.485 105.699 124.412 106.197 124.305L103.458 134.041Z" fill="#241F20" />
    <path d="M115.797 135.897H112.719L115.383 126.47C115.474 126.2 115.507 125.913 115.482 125.629C115.469 125.552 115.426 125.482 115.363 125.436C115.3 125.389 115.222 125.369 115.144 125.378C115.003 125.384 114.865 125.421 114.74 125.487C114.615 125.553 114.507 125.647 114.424 125.76C114.121 126.168 113.885 126.621 113.724 127.103L113.309 128.214H112.905L113.493 126.557C113.798 125.698 114.217 125.109 114.749 124.788C115.28 124.469 115.888 124.303 116.507 124.309C117.149 124.309 117.589 124.469 117.828 124.788C118.076 125.13 118.203 125.545 118.19 125.967C118.189 126.438 118.13 126.908 118.014 127.365L115.797 135.897ZM121.388 124.78C121.059 124.792 120.737 124.882 120.45 125.043C120.045 125.28 119.696 125.6 119.424 125.981C118.994 126.568 118.624 127.197 118.322 127.858C117.86 128.853 117.466 129.877 117.142 130.925C116.738 132.168 116.326 133.67 115.908 135.43L116.388 132.485C116.853 130.884 117.275 129.56 117.654 128.513C117.95 127.643 118.334 126.805 118.801 126.013C119.102 125.485 119.521 125.034 120.025 124.693C120.47 124.428 120.981 124.292 121.499 124.301C121.741 124.286 121.983 124.323 122.208 124.41C122.434 124.496 122.639 124.63 122.808 124.802C123.118 125.151 123.282 125.604 123.267 126.07C123.277 126.655 123.067 127.222 122.679 127.66C122.498 127.877 122.27 128.051 122.013 128.168C121.756 128.285 121.476 128.343 121.194 128.338C121.016 128.349 120.837 128.325 120.668 128.267C120.499 128.209 120.343 128.118 120.209 128C120.087 127.871 119.994 127.718 119.934 127.551C119.874 127.384 119.849 127.207 119.861 127.03C119.858 126.513 120.048 126.014 120.395 125.631C120.727 125.24 121.175 124.966 121.673 124.847L121.542 124.802C121.492 124.79 121.44 124.785 121.388 124.788V124.78Z" fill="#241F20" />
    <path d="M130.758 131.161C131.341 130.935 131.91 130.672 132.461 130.375C132.958 130.113 133.421 129.791 133.838 129.415C134.401 128.913 134.863 128.309 135.202 127.636C135.545 126.956 135.721 126.205 135.716 125.443C135.732 125.246 135.703 125.048 135.629 124.865C135.602 124.82 135.563 124.783 135.517 124.758C135.47 124.733 135.418 124.721 135.366 124.724C134.973 124.724 134.536 124.972 134.055 125.465C133.513 126.047 133.055 126.701 132.691 127.408C132.247 128.243 131.895 129.124 131.642 130.035C131.38 130.928 131.244 131.854 131.237 132.784C131.237 133.593 131.393 134.157 131.706 134.454C131.869 134.605 132.06 134.722 132.268 134.799C132.477 134.875 132.698 134.91 132.92 134.9C133.429 134.871 133.927 134.737 134.383 134.508C135.054 134.176 135.644 133.699 136.11 133.112L136.458 133.285C136.121 133.802 135.717 134.272 135.256 134.682C134.746 135.143 134.163 135.516 133.531 135.786C132.854 136.073 132.126 136.218 131.391 136.21C130.509 136.236 129.646 135.957 128.945 135.422C128.29 134.904 127.962 134.137 127.962 133.12C127.968 132.312 128.097 131.51 128.344 130.741C128.606 129.91 128.97 129.114 129.427 128.372C129.892 127.609 130.457 126.913 131.108 126.3C131.747 125.693 132.485 125.198 133.29 124.837C134.095 124.481 134.967 124.3 135.847 124.305C136.417 124.285 136.98 124.433 137.465 124.732C137.68 124.87 137.854 125.064 137.969 125.292C138.084 125.52 138.137 125.774 138.121 126.029C138.121 126.594 137.958 127.147 137.651 127.622C137.315 128.142 136.89 128.6 136.395 128.974C135.848 129.396 135.259 129.762 134.637 130.066C133.993 130.385 133.329 130.662 132.649 130.896C132.023 131.115 131.385 131.296 130.737 131.44L130.758 131.161Z" fill="#241F20" />
    <path d="M0 65.5119V64.5195L1.98639 63.8262C4.23844 63.0985 5.36447 61.2121 5.36447 58.1668V7.34715C5.36447 6.02324 5.2168 4.9621 4.91743 4.16978C4.61805 3.37746 3.84332 2.7145 2.58312 2.18292L0 0.99242V0H19.1741L37.5492 48.0445L54.8361 0H74.4067V0.99242L72.8167 1.59879C71.5559 2.06097 70.6948 2.70642 70.2336 3.53512C69.7724 4.36382 69.5405 5.44181 69.5378 6.76908V58.664C69.5378 59.9879 69.7016 61.0126 70.0354 61.7403C70.3692 62.4679 71.1601 63.0985 72.4183 63.6261L74.4067 64.5195V65.5119H49.6698V64.5195L51.7574 63.6261C53.0129 63.0979 53.8071 62.4693 54.1402 61.7403C54.4733 61.0113 54.6385 59.9859 54.6358 58.664V36.3295L54.8381 7.94139L34.0741 65.5119H29.1081L7.44997 8.63669L7.74935 33.3502V58.3669C7.74935 59.8221 7.96444 60.9965 8.39462 61.8899C8.8248 62.7832 9.66763 63.4287 10.9231 63.8262L13.1098 64.5195V65.5119H0Z" fill="#241F20" />
    <path d="M83.1613 38.955C81.4797 38.955 80.0469 38.6431 78.8629 38.0192C77.7535 37.4651 76.821 36.6125 76.1705 35.5573C75.5551 34.5316 75.2358 33.3556 75.2481 32.1597C75.2481 29.0807 77.2345 26.7145 81.2073 25.0611C80.5142 24.1236 79.8831 23.1419 79.318 22.1223C78.7518 21.0539 78.4691 19.8584 78.4968 18.6498C78.4968 16.8428 79.14 15.3983 80.4265 14.3163C81.713 13.2343 83.3987 12.6953 85.4835 12.6993C87.5211 12.6993 89.0996 13.1514 90.2189 14.0556C90.7599 14.4764 91.194 15.0187 91.486 15.6386C91.7781 16.2584 91.9199 16.9382 91.8998 17.623C91.8998 18.8721 91.3908 19.967 90.3726 20.9075C89.3545 21.8481 87.9028 22.7131 86.0175 23.5028C86.501 24.0364 87.0047 24.6043 87.5265 25.2006C88.0484 25.7969 88.5885 26.3911 89.1448 26.9752C89.8325 27.7393 90.5007 28.4642 91.1494 29.1501C91.798 29.8359 92.4541 30.5487 93.1176 31.2885C93.7944 30.3324 94.3706 29.3089 94.8369 28.2345C95.3825 27.0194 95.8086 25.7542 96.1093 24.4568C96.3129 23.4893 95.9441 22.8661 95.0028 22.5872L94.7358 22.4719V22.0899H99.0524V22.4719L98.7086 22.5872C98.3059 22.7119 97.9427 22.9393 97.6547 23.2469C97.3666 23.5545 97.1638 23.9318 97.0661 24.3416C96.6975 25.723 96.2242 27.0744 95.6501 28.384C95.1189 29.6045 94.4664 30.7685 93.7021 31.8585L97.7882 36.1698C98.0873 36.4978 98.421 36.7926 98.7834 37.049C99.1125 37.2767 99.4813 37.5058 99.8899 37.7362L100.426 38.003V38.383H92.711L90.1501 35.6341C89.6402 36.1936 89.0913 36.7164 88.5076 37.1986C87.8443 37.7383 87.0958 38.1638 86.2926 38.4578C85.2878 38.8123 84.2267 38.9808 83.1613 38.955ZM85.3763 36.3961C86.1965 36.4068 87.0118 36.2699 87.7834 35.9919C88.4441 35.7543 89.0627 35.4132 89.6161 34.9813C89.0052 34.2941 88.3687 33.5752 87.7066 32.8246C87.0444 32.0741 86.4207 31.3552 85.8355 30.668C85.1221 29.8285 84.4283 28.989 83.754 28.1496C83.0797 27.3101 82.4109 26.4955 81.7474 25.7059C81.1025 26.2949 80.6079 27.0295 80.3051 27.8484C79.9987 28.6659 79.8431 29.5322 79.846 30.4052C79.846 32.1354 80.3618 33.5664 81.3934 34.6983C82.425 35.8302 83.7527 36.3961 85.3763 36.3961ZM85.5685 22.9995C86.4514 22.2469 87.1837 21.3341 87.7268 20.3092C88.1785 19.3751 88.4077 18.3492 88.3963 17.3118C88.3963 16.3187 88.1415 15.5102 87.6317 14.8863C87.3788 14.5769 87.0571 14.3309 86.6923 14.1677C86.3274 14.0045 85.9294 13.9287 85.53 13.9464C85.1341 13.9382 84.7411 14.016 84.3783 14.1745C84.0154 14.3329 83.6913 14.5682 83.4283 14.8641C82.8573 15.5024 82.5557 16.3369 82.5869 17.1925C82.594 17.8167 82.704 18.4353 82.9125 19.0237C83.2012 19.7978 83.5931 20.5293 84.0777 21.1986C84.2314 21.4007 84.4337 21.6453 84.6845 21.9242C84.9353 22.2031 85.2367 22.5669 85.5644 22.9995H85.5685Z" fill="url(#paint0_linear)" />
    <path d="M75.248 114.237V113.168L77.4913 112.315C79.7717 111.392 80.9119 109.577 80.9119 106.87V51.1369C80.9119 48.291 79.7717 46.476 77.4913 45.6918L75.248 44.8428V43.7756H103.46C111.012 43.7756 117.511 45.1817 122.958 47.9939C128.405 50.8061 132.607 54.827 135.566 60.0566C138.521 65.2942 139.999 71.5755 140 78.9004C140 86.3722 138.397 92.7418 135.192 98.0091C131.986 103.276 127.517 107.298 121.783 110.074C116.05 112.85 109.301 114.237 101.536 114.237H75.248ZM96.9386 112.103H101.544C106.669 112.103 110.8 111.088 113.938 109.059C117.076 107.03 119.373 103.613 120.83 98.8095C122.289 94.007 123.019 87.4044 123.019 79.0015C123.019 70.5986 122.289 63.9959 120.83 59.1935C119.369 54.3911 117.108 50.9752 114.045 48.9459C110.983 46.9166 106.958 45.906 101.971 45.9141H96.9426L96.9386 112.103Z" fill="#241F20" />
    <path d="M70.0676 94.187H1.43199C0.708069 94.187 0.121216 94.7733 0.121216 95.4967V112.928C0.121216 113.651 0.708069 114.237 1.43199 114.237H70.0676C70.7915 114.237 71.3783 113.651 71.3783 112.928V95.4967C71.3783 94.7733 70.7915 94.187 70.0676 94.187Z" fill="#3C3231" />
    <path d="M42.9601 103.402H28.7782C28.3627 103.402 28.0258 103.738 28.0258 104.154V105.552C28.0258 105.968 28.3627 106.304 28.7782 106.304H42.9601C43.3757 106.304 43.7126 105.968 43.7126 105.552V104.154C43.7126 103.738 43.3757 103.402 42.9601 103.402Z" fill="url(#paint1_linear)" />
    <path d="M70.0676 69.8232H1.43199C0.708069 69.8232 0.121216 70.4095 0.121216 71.1329V88.5639C0.121216 89.2873 0.708069 89.8737 1.43199 89.8737H70.0676C70.7915 89.8737 71.3783 89.2873 71.3783 88.5639V71.1329C71.3783 70.4095 70.7915 69.8232 70.0676 69.8232Z" fill="#4A3837" />
    <path d="M42.9601 79.04H28.7782C28.3627 79.04 28.0258 79.3766 28.0258 79.7918V81.1905C28.0258 81.6057 28.3627 81.9423 28.7782 81.9423H42.9601C43.3757 81.9423 43.7126 81.6057 43.7126 81.1905V79.7918C43.7126 79.3766 43.3757 79.04 42.9601 79.04Z" fill="url(#paint2_linear)" />
    <defs>
        <linearGradient id="paint0_linear" x1="78.5554" y1="38.1971" x2="96.8535" y2="19.8867" gradientUnits="userSpaceOnUse">
            <stop offset="0.01" stop-color="#7E7E7E" />
            <stop offset="0.12" stop-color="#8D8D8D" />
            <stop offset="0.34" stop-color="#B5B4B4" />
            <stop offset="0.51" stop-color="#DAD9D8" />
            <stop offset="0.63" stop-color="#D0CFCE" />
            <stop offset="0.82" stop-color="#B5B5B4" />
            <stop offset="1" stop-color="#959595" />
        </linearGradient>
        <linearGradient id="paint1_linear" x1="2201.43" y1="1609.12" x2="3417.95" y2="1609.12" gradientUnits="userSpaceOnUse">
            <stop offset="0.01" stop-color="#7E7E7E" />
            <stop offset="0.12" stop-color="#8D8D8D" />
            <stop offset="0.34" stop-color="#B5B4B4" />
            <stop offset="0.51" stop-color="#DAD9D8" />
            <stop offset="0.63" stop-color="#D0CFCE" />
            <stop offset="0.82" stop-color="#B5B5B4" />
            <stop offset="1" stop-color="#959595" />
        </linearGradient>
        <linearGradient id="paint2_linear" x1="2201.43" y1="1234.85" x2="3417.95" y2="1234.85" gradientUnits="userSpaceOnUse">
            <stop offset="0.01" stop-color="#7E7E7E" />
            <stop offset="0.12" stop-color="#8D8D8D" />
            <stop offset="0.34" stop-color="#B5B4B4" />
            <stop offset="0.51" stop-color="#DAD9D8" />
            <stop offset="0.63" stop-color="#D0CFCE" />
            <stop offset="0.82" stop-color="#B5B5B4" />
            <stop offset="1" stop-color="#959595" />
        </linearGradient>
    </defs>
</svg>