<svg width="96" height="92" viewBox="0 0 96 92" fill="none" xmlns="http://www.w3.org/2000/svg">
<path d="M7.56679 78.3475C7.41797 78.3453 7.27027 78.3724 7.13285 78.4272C7.00293 78.4793 6.88153 78.549 6.7724 78.6343C6.54172 78.8624 6.37235 79.1408 6.27885 79.4454C6.13929 79.8224 6.00066 80.2694 5.86295 80.7863L2.77274 91.7997C2.35684 91.809 1.96865 91.8289 1.61929 91.8568C1.27785 91.885 0.938502 91.9328 0.603088 92.0002L3.40354 82.0196C3.57851 81.3236 3.83184 80.6479 4.15911 80.0043C4.40304 79.5245 4.74699 79.0975 5.16976 78.7498C5.45925 78.5298 5.78808 78.362 6.14022 78.2546C6.51051 78.1424 6.89697 78.0868 7.28535 78.09C7.91476 78.09 8.40184 78.2143 8.74658 78.463C8.91153 78.5773 9.04477 78.7285 9.13467 78.9035C9.22456 79.0784 9.26838 79.2718 9.26231 79.4667C9.24515 79.8045 9.09236 80.123 8.83583 80.3555C8.5793 80.588 8.23888 80.7167 7.88565 80.7146C7.63741 80.7259 7.39266 80.6551 7.19247 80.5141C7.10467 80.4448 7.03518 80.3566 6.98966 80.2567C6.94413 80.1568 6.92384 80.0481 6.93045 79.9393C6.92765 79.6318 7.03644 79.3329 7.23822 79.0936C7.45848 78.8337 7.75198 78.6397 8.0839 78.5347C8.02521 78.4793 7.95667 78.4343 7.88149 78.402C7.78228 78.3611 7.67464 78.3425 7.56679 78.3475ZM2.10036 82.1762L2.19047 81.8895H7.14672L7.0566 82.1762H2.10036Z" fill="url(#paint0_linear)"/>
<path d="M16.0735 84.271C15.7718 85.1573 15.4168 86.0261 15.0102 86.873C14.7455 87.4402 14.4109 87.9751 14.0134 88.4661C13.7451 88.7969 13.4056 89.0685 13.018 89.2626C12.6823 89.42 12.3132 89.5013 11.9394 89.5003C11.31 89.5003 10.901 89.3078 10.7125 88.9268C10.5239 88.5457 10.5475 88.0134 10.7874 87.3337L12.2389 83.1054C12.3401 82.828 12.3609 82.6394 12.3068 82.5385C12.2833 82.4917 12.2459 82.4526 12.1993 82.4259C12.1527 82.3992 12.099 82.3862 12.0448 82.3885C11.8786 82.4046 11.7243 82.4782 11.6109 82.5956C11.45 82.7284 11.2809 83.043 11.1007 83.5249L10.8317 84.2139H10.5544L10.9288 83.1665C11.1478 82.5638 11.4473 82.1655 11.8271 81.9717C12.1667 81.7904 12.5475 81.6919 12.9362 81.6849C13.3854 81.6849 13.7209 81.7792 13.9399 81.965C14.0527 82.0661 14.1427 82.1882 14.2045 82.3238C14.2662 82.4594 14.2984 82.6057 14.299 82.7536C14.3074 83.1665 14.2364 83.5773 14.0897 83.9657L12.7421 87.8368C12.5217 88.4688 12.573 88.7834 12.8918 88.7834C13.1317 88.7834 13.4048 88.6002 13.7153 88.2324C14.0898 87.7672 14.4149 87.2673 14.6858 86.7403C15.051 86.0504 15.375 85.3412 15.6563 84.6162C15.9694 83.8077 16.2391 82.9844 16.4645 82.1496L16.0735 84.271ZM16.8069 88.0851C16.7481 88.2565 16.7177 88.4357 16.7168 88.6161C16.7265 88.7356 16.8125 88.7953 16.9719 88.7953C17.0683 88.7907 17.1625 88.7662 17.2482 88.7236C17.3338 88.681 17.4089 88.6213 17.4682 88.5484C17.6755 88.2839 17.8301 87.9851 17.9243 87.6669L18.2099 86.9354H18.4941L18.0893 88.0253C17.8897 88.59 17.605 88.9772 17.2353 89.187C16.8886 89.3909 16.4902 89.5002 16.0833 89.5029C15.8483 89.5089 15.615 89.4635 15.4012 89.3702C15.2256 89.2928 15.0773 89.1683 14.9742 89.0117C14.8704 88.8096 14.8263 88.5842 14.8466 88.3599C14.8673 88.0673 14.9137 87.7768 14.9853 87.4917L16.4978 81.8854C16.9072 81.8756 17.294 81.8562 17.6582 81.827C17.9987 81.8025 18.3369 81.7546 18.6702 81.6836L16.8069 88.0851Z" fill="url(#paint1_linear)"/>
<path d="M25.2678 89.3039H23.1522L24.9822 83.1055C25.0446 82.9279 25.0677 82.7399 25.0502 82.5532C25.0413 82.5025 25.0122 82.457 24.969 82.4263C24.9259 82.3956 24.872 82.3821 24.8186 82.3886C24.7218 82.3924 24.6271 82.4169 24.5414 82.4603C24.4558 82.5037 24.3814 82.565 24.3237 82.6395C24.1172 82.9079 23.9554 83.2052 23.844 83.521L23.5598 84.2525H23.2756L23.6804 83.1626C23.8893 82.5988 24.1763 82.2116 24.5414 82.001C24.9047 81.791 25.3217 81.6816 25.7461 81.685C26.1856 81.685 26.4878 81.7912 26.6528 82.001C26.8222 82.2257 26.9089 82.4979 26.8996 82.7749C26.8989 83.0847 26.8588 83.3932 26.7803 83.6936L25.2678 89.3039ZM29.1011 82.0023C28.8748 82.009 28.6536 82.0682 28.4564 82.1749C28.1795 82.3305 27.9399 82.5404 27.7536 82.7909C27.4583 83.1764 27.2046 83.5896 26.9966 84.0242C26.6802 84.6778 26.4102 85.3511 26.1884 86.0394C25.9111 86.8563 25.6292 87.8431 25.3427 88.9999L25.6712 87.0643C25.992 86.0129 26.2817 85.1429 26.5405 84.4543C26.7435 83.8827 27.0069 83.3325 27.3266 82.8121C27.5304 82.4656 27.8151 82.169 28.1584 81.9452C28.4632 81.7698 28.8134 81.68 29.169 81.6863C29.3348 81.6762 29.5009 81.7004 29.656 81.7575C29.8111 81.8146 29.9514 81.903 30.0674 82.0169C30.2801 82.2448 30.3929 82.5425 30.3821 82.848C30.3889 83.2333 30.2445 83.6071 29.9773 83.8954C29.8533 84.0378 29.6975 84.1517 29.5214 84.2287C29.3452 84.3057 29.1533 84.3438 28.9597 84.3401C28.8376 84.3474 28.7151 84.3315 28.5995 84.2932C28.4839 84.2549 28.3773 84.1951 28.2859 84.1171C28.2022 84.0325 28.1377 83.9322 28.0965 83.8225C28.0552 83.7128 28.038 83.5962 28.0461 83.4799C28.0438 83.1406 28.1744 82.8128 28.4121 82.5612C28.6398 82.3041 28.9472 82.1232 29.2897 82.0448L29.1981 82.0169C29.1666 82.0083 29.1339 82.0043 29.1011 82.005V82.0023Z" fill="url(#paint2_linear)"/>
<path d="M36.1259 89.3034H34.0131L35.825 83.1051C35.8719 82.9869 35.9045 82.864 35.9221 82.7387C35.9413 82.6514 35.9285 82.5605 35.886 82.4811C35.8606 82.448 35.8263 82.4219 35.7869 82.4056C35.7474 82.3892 35.7041 82.3832 35.6614 82.3882C35.5671 82.3906 35.4745 82.413 35.3904 82.4539C35.3062 82.4947 35.2326 82.553 35.1748 82.6245C34.9667 82.8962 34.807 83.199 34.7021 83.5206L34.4179 84.2521H34.1406L34.5454 83.1622C34.7451 82.6165 35.0057 82.2329 35.3315 82.0151C35.6668 81.7913 36.0679 81.6755 36.4766 81.6846C36.9563 81.6846 37.2909 81.7877 37.4804 81.9939C37.6729 82.2087 37.7743 82.4849 37.7646 82.7679C37.7647 83.0812 37.7242 83.3934 37.6439 83.6972L36.1259 89.3034ZM36.6 86.8807C36.99 85.8381 37.3523 84.98 37.6869 84.3065C37.9519 83.7427 38.285 83.2107 38.6796 82.7214C38.945 82.3857 39.2856 82.1113 39.6764 81.9182C40.0181 81.7648 40.3913 81.6863 40.7688 81.6886C41.2485 81.6886 41.5923 81.7895 41.803 81.9899C41.9091 82.0953 41.9915 82.2203 42.0454 82.3573C42.0993 82.4942 42.1234 82.6403 42.1164 82.7865C42.1096 83.148 42.0441 83.5063 41.9223 83.8485L40.4541 88.0794C40.3557 88.3449 40.3293 88.5335 40.3806 88.6383C40.4022 88.6886 40.4399 88.7309 40.4882 88.7593C40.5365 88.7877 40.5931 88.8007 40.6496 88.7963C40.8155 88.7796 40.9696 88.706 41.0835 88.5892C41.2429 88.4498 41.4135 88.1418 41.5923 87.6599L41.8626 86.9709H42.1455L41.7711 88.0184C41.5521 88.6211 41.2513 89.018 40.8728 89.2132C40.5333 89.3946 40.1524 89.4936 39.7637 89.5013C39.1953 89.5013 38.796 89.3433 38.5659 89.0273C38.4294 88.809 38.3647 88.5565 38.3801 88.3025C38.4007 87.9329 38.4783 87.5683 38.6102 87.2205L39.9592 83.348C40.0165 83.2046 40.0565 83.0554 40.0784 82.9033C40.1002 82.7846 40.095 82.6628 40.0632 82.5462C40.034 82.4506 39.9495 82.4015 39.8094 82.4015C39.5701 82.4015 39.2956 82.5833 38.9859 82.9471C38.6127 83.4019 38.2877 83.8911 38.0155 84.4074C37.6503 85.0819 37.3263 85.776 37.045 86.4864C36.7363 87.2608 36.4618 88.0573 36.2215 88.876L36.6 86.8807Z" fill="url(#paint3_linear)"/>
<path d="M48.689 83.105C48.8582 82.627 48.8041 82.3881 48.5241 82.3881C48.4268 82.3923 48.3317 82.4176 48.2462 82.4622C48.1607 82.5069 48.0869 82.5696 48.0305 82.6456C47.8291 82.9123 47.6724 83.2075 47.5661 83.5205L47.2666 84.252H46.9824L47.3983 83.1621C47.6072 82.5983 47.897 82.2111 48.2676 82.0004C48.6342 81.7909 49.0537 81.6816 49.4806 81.6845C49.9492 81.6845 50.2833 81.7907 50.483 82.0004C50.6831 82.2124 50.7929 82.4886 50.7907 82.7744C50.7943 83.087 50.7413 83.3978 50.6341 83.6931L49.0606 88.074C48.9718 88.3395 48.9483 88.5161 48.994 88.6263C49.0146 88.6793 49.053 88.7243 49.1032 88.7541C49.1534 88.7839 49.2126 88.7968 49.2713 88.7909C49.4372 88.7745 49.5901 88.6974 49.6983 88.5759C49.8536 88.4325 50.0259 88.1267 50.2154 87.6585L50.4844 86.9695H50.77L50.3804 88.017C50.1706 88.5993 49.8758 88.9914 49.4959 89.1932C49.1497 89.3854 48.7578 89.4891 48.3577 89.4945C47.9298 89.4945 47.603 89.4034 47.3775 89.2211C47.262 89.1216 47.1697 89 47.1064 88.8641C47.0431 88.7283 47.0103 88.5812 47.0101 88.4325C47.0028 88.0175 47.0738 87.6047 47.2195 87.2138L48.689 83.105ZM49.2588 79.4914C49.257 79.3096 49.2986 79.1299 49.3803 78.9659C49.4619 78.8019 49.5816 78.6579 49.7302 78.5448C50.0323 78.3219 50.4053 78.2052 50.7866 78.2142C51.0913 78.194 51.3929 78.2835 51.6323 78.4651C51.7301 78.5531 51.8049 78.662 51.8504 78.7829C51.8959 78.9038 51.911 79.0333 51.8943 79.1608C51.8885 79.3369 51.8426 79.5097 51.7597 79.667C51.6769 79.8243 51.5591 79.9624 51.4146 80.0715C51.1107 80.3078 50.7288 80.4326 50.3374 80.4233C50.042 80.441 49.7504 80.3514 49.5208 80.1724C49.424 80.0877 49.3497 79.982 49.3042 79.8643C49.2586 79.7465 49.243 79.62 49.2588 79.4953V79.4914Z" fill="url(#paint4_linear)"/>
<path d="M57.6907 88.085C57.62 88.3332 57.6284 88.5151 57.7129 88.6306C57.7562 88.6876 57.8139 88.7332 57.8806 88.7631C57.9472 88.7931 58.0207 88.8064 58.0942 88.8018C58.2148 88.7945 58.3327 88.7641 58.4408 88.7123C58.5489 88.6606 58.6451 88.5885 58.7236 88.5005C58.9753 88.232 59.1643 87.9152 59.2781 87.5712L59.5027 86.9831H59.7869L59.4875 87.8155C59.2878 88.389 58.9958 88.8142 58.6113 89.0913C58.2157 89.3719 57.7338 89.5186 57.2416 89.5081C56.5428 89.5081 56.0886 89.2869 55.8788 88.8443C55.668 88.4049 55.6583 87.8633 55.8483 87.2234L58.0886 79.7532C58.5184 79.7439 58.908 79.724 59.2573 79.6961C59.5947 79.6686 59.93 79.6207 60.261 79.5527L57.6907 88.085ZM61.2551 81.8906L61.2107 82.1773H56.0091L56.0839 81.8906H61.2551Z" fill="url(#paint5_linear)"/>
<path d="M70.2095 84.2712C69.9081 85.1574 69.5535 86.0261 69.1475 86.8732C68.8818 87.4399 68.5472 87.9746 68.1507 88.4662C67.8824 88.797 67.5429 89.0687 67.1553 89.2628C66.8195 89.42 66.4505 89.5013 66.0767 89.5004C65.4473 89.5004 65.0383 89.3079 64.8484 88.9269C64.6585 88.5459 64.6848 88.0135 64.9233 87.3338L66.3762 83.1055C66.476 82.8281 66.4982 82.6396 66.4441 82.5387C66.4206 82.4919 66.3832 82.4527 66.3366 82.426C66.29 82.3994 66.2363 82.3864 66.1821 82.3887C66.0156 82.4051 65.861 82.4787 65.7468 82.5958C65.5869 82.7347 65.4173 83.0445 65.238 83.5251L64.969 84.2141H64.6848L65.0577 83.1666C65.2768 82.5639 65.5776 82.167 65.9561 81.9718C66.2957 81.7908 66.6766 81.6923 67.0652 81.6851C67.5144 81.6851 67.8485 81.7793 68.0689 81.9652C68.1817 82.0663 68.2717 82.1884 68.3335 82.324C68.3952 82.4596 68.4274 82.6058 68.428 82.7537C68.4364 83.1666 68.3654 83.5775 68.2186 83.9658L66.8711 87.837C66.6502 88.4689 66.7001 88.7844 67.0208 88.7835C67.2607 88.7835 67.5338 88.6003 67.8429 88.2326C68.2174 87.7673 68.5425 87.2675 68.8134 86.7404C69.1786 86.0505 69.5026 85.3414 69.7838 84.6163C70.098 83.8081 70.3683 82.9847 70.5935 82.1497L70.2095 84.2712ZM70.9442 88.0852C70.8847 88.2565 70.8543 88.4358 70.8541 88.6163C70.8634 88.7357 70.9479 88.7955 71.1078 88.7955C71.2057 88.7913 71.3015 88.7667 71.3884 88.7233C71.4754 88.68 71.5513 88.619 71.6111 88.5446C71.8178 88.2797 71.9724 87.981 72.0672 87.6631L72.3445 86.9316H72.6217L72.2294 88.0281C72.0288 88.5928 71.7442 88.98 71.3754 89.1898C71.0283 89.394 70.6293 89.5032 70.2219 89.5057C69.9874 89.5116 69.7546 89.4662 69.5412 89.373C69.3654 89.296 69.217 89.1714 69.1142 89.0145C69.0098 88.8126 68.9657 88.5871 68.9867 88.3627C69.0067 88.07 69.0531 87.7795 69.1253 87.4945L70.6378 81.8882C71.0473 81.8784 71.4341 81.859 71.7982 81.8298C72.1383 81.8053 72.476 81.7574 72.8089 81.6864L70.9442 88.0852Z" fill="url(#paint6_linear)"/>
<path d="M79.4052 89.3039H77.2938L79.121 83.1055C79.1824 82.9277 79.2051 82.7398 79.1876 82.5532C79.1787 82.5025 79.1496 82.457 79.1065 82.4263C79.0633 82.3956 79.0094 82.3821 78.9561 82.3886C78.8592 82.3924 78.7645 82.4169 78.6789 82.4603C78.5932 82.5037 78.5188 82.565 78.4611 82.6395C78.2547 82.9077 78.0933 83.2051 77.9828 83.521L77.6972 84.2525H77.413L77.8179 83.1626C78.0277 82.5988 78.3146 82.2116 78.6788 82.001C79.0426 81.7909 79.4601 81.6816 79.8849 81.685C80.323 81.685 80.6252 81.7912 80.7902 82.001C80.9596 82.2257 81.0464 82.4979 81.037 82.7749C81.0363 83.0847 80.9963 83.3932 80.9178 83.6936L79.4052 89.3039ZM83.2385 82.0023C83.0122 82.009 82.791 82.0682 82.5939 82.1749C82.3169 82.3305 82.0774 82.5404 81.891 82.7909C81.5957 83.1761 81.3425 83.5894 81.1354 84.0242C80.8185 84.6777 80.548 85.351 80.3258 86.0394C80.0485 86.8563 79.7666 87.8431 79.4801 88.9999L79.8087 87.0643C80.1294 86.0129 80.4191 85.1429 80.6779 84.4543C80.8809 83.8827 81.1443 83.3325 81.464 82.8121C81.6678 82.4656 81.9525 82.169 82.2958 81.9452C82.6008 81.7701 82.9509 81.6804 83.3065 81.6863C83.4722 81.6762 83.6383 81.7004 83.7934 81.7575C83.9485 81.8146 84.0888 81.903 84.2048 82.0169C84.4176 82.2448 84.5303 82.5425 84.5195 82.848C84.5262 83.2331 84.3823 83.6067 84.1161 83.8954C83.9917 84.0377 83.8356 84.1515 83.6593 84.2285C83.4829 84.3054 83.2909 84.3436 83.0971 84.3401C82.975 84.3474 82.8526 84.3315 82.7369 84.2932C82.6213 84.2549 82.5147 84.1951 82.4233 84.1171C82.3397 84.0325 82.2752 83.9322 82.2339 83.8225C82.1926 83.7128 82.1755 83.5962 82.1835 83.4799C82.1812 83.1404 82.3124 82.8124 82.5509 82.5612C82.7781 82.3042 83.0851 82.1233 83.4271 82.0448L83.337 82.0169C83.3049 82.0084 83.2718 82.0044 83.2385 82.005V82.0023Z" fill="url(#paint7_linear)"/>
<path d="M89.6629 86.1918C90.0632 86.0428 90.4535 85.8703 90.8316 85.6754C91.1721 85.5037 91.4888 85.2918 91.7744 85.0448C92.1602 84.7152 92.4776 84.3188 92.7101 83.8766C92.9442 83.4315 93.0649 82.9398 93.0623 82.4415C93.074 82.3122 93.0536 82.1821 93.0027 82.0618C92.9845 82.0319 92.9581 82.0073 92.9263 81.9909C92.8945 81.9745 92.8585 81.9669 92.8224 81.9689C92.5535 81.9689 92.254 82.1313 91.9241 82.4561C91.553 82.8383 91.2386 83.2676 90.9897 83.7319C90.685 84.2804 90.4437 84.8591 90.2702 85.4577C90.09 86.0446 89.9967 86.6528 89.9929 87.2645C89.9929 87.7955 90.0996 88.1659 90.3145 88.3611C90.4261 88.4601 90.5571 88.537 90.6998 88.5873C90.8426 88.6377 90.9943 88.6605 91.1463 88.6545C91.4954 88.6354 91.8366 88.5477 92.1487 88.3969C92.609 88.1783 93.0133 87.8651 93.3326 87.4796L93.5711 87.5937C93.3406 87.933 93.0641 88.2414 92.749 88.5111C92.3992 88.8141 91.999 89.0591 91.565 89.2359C91.101 89.4251 90.6012 89.5205 90.0969 89.5161C89.4931 89.536 88.9007 89.3559 88.4194 89.0063C87.9702 88.6664 87.7456 88.1633 87.7456 87.4929C87.7494 86.9622 87.8383 86.4352 88.009 85.9303C88.1885 85.3845 88.4376 84.8619 88.7507 84.3744C89.0692 83.873 89.4567 83.4148 89.9028 83.0123C90.3411 82.6126 90.8474 82.2876 91.4 82.0512C91.9516 81.8166 92.5489 81.6967 93.1524 81.6994C93.5428 81.6865 93.9285 81.7839 94.2615 81.9795C94.4091 82.0705 94.5286 82.1976 94.6078 82.3477C94.687 82.4977 94.723 82.6653 94.712 82.8331C94.7124 83.2044 94.6002 83.5678 94.389 83.8792C94.1583 84.2214 93.867 84.5225 93.5281 84.7687C93.153 85.0463 92.7494 85.2865 92.3234 85.4856C91.881 85.6931 91.4254 85.8736 90.9592 86.0259C90.5294 86.169 90.0916 86.2887 89.6477 86.3843L89.6629 86.1918Z" fill="url(#paint8_linear)"/>
<path d="M0 43.0515V42.3997L1.36279 41.943C2.90628 41.465 3.67802 40.226 3.67802 38.2258V4.82701C3.67802 3.95702 3.57635 3.26138 3.37302 2.74009C3.16968 2.2188 2.63594 1.7838 1.77177 1.43509L0 0.651833V0H13.1483L25.7489 31.5721L37.6023 0H51.0181V0.651833L49.9284 1.0501C49.0643 1.35544 48.4737 1.77982 48.1567 2.32323C47.8396 2.86665 47.6807 3.57468 47.6798 4.44733V38.5657C47.6798 39.4365 47.7934 40.1105 48.0208 40.5875C48.2482 41.0646 48.7939 41.4748 49.6581 41.8182L51.0209 42.4063V43.0581H34.0587V42.4063L35.4909 41.8182C36.3513 41.4712 36.8962 41.0584 37.1254 40.5796C37.3546 40.1008 37.4678 39.4268 37.465 38.5577V23.8735L37.6037 5.21864L23.3671 43.0541H19.9636L5.10874 5.67532L5.31254 21.918V38.3546C5.31254 39.3113 5.46042 40.0835 5.75617 40.6712C6.05193 41.2588 6.63097 41.6828 7.49329 41.943L8.99194 42.3997V43.0515H0Z" fill="white"/>
<path d="M57.0252 25.5994C55.8717 25.5994 54.8893 25.3945 54.0778 24.9848C53.3169 24.6198 52.6774 24.059 52.2311 23.3651C51.8101 22.6907 51.5923 21.9179 51.6017 21.1322C51.6017 19.1107 52.9641 17.5557 55.6887 16.4671C55.2125 15.8514 54.7794 15.2062 54.3925 14.5355C54.0042 13.8334 53.8104 13.0477 53.8296 12.2534C53.8296 11.0666 54.2705 10.1174 55.1522 9.40583C56.0339 8.69425 57.1892 8.34024 58.6181 8.34378C60.0156 8.34378 61.0983 8.64027 61.8664 9.23324C62.2372 9.51022 62.5347 9.8669 62.7349 10.2744C62.935 10.682 63.0322 11.1289 63.0184 11.579C63.0184 12.3986 62.6695 13.1177 61.9717 13.7363C61.2739 14.355 60.2799 14.9227 58.9897 15.4396C59.3205 15.7936 59.6653 16.1662 60.0239 16.5574C60.3825 16.9486 60.7522 17.3371 61.133 17.723C61.6043 18.2248 62.0628 18.7014 62.5083 19.1528C62.9537 19.6041 63.4034 20.0723 63.8572 20.5573C64.3224 19.9297 64.7174 19.2569 65.0356 18.5501C65.4077 17.7515 65.6974 16.92 65.9007 16.0675C66.0402 15.4312 65.787 15.0214 65.141 14.8382L64.958 14.7625V14.5116H67.9178V14.7625L67.6822 14.8382C67.4062 14.9209 67.1573 15.0706 66.9598 15.2728C66.7623 15.475 66.6228 15.7227 66.555 15.9919C66.3026 16.8993 65.9782 17.7869 65.5846 18.647C65.2206 19.449 64.7733 20.214 64.2495 20.9304L67.0569 23.7634C67.2615 23.9792 67.4902 24.1729 67.739 24.3409C67.965 24.4909 68.2187 24.6422 68.4973 24.7923L68.8647 24.9688V25.2237H63.573L61.8178 23.4182C61.4684 23.7857 61.0922 24.1291 60.6921 24.4458C60.2352 24.8009 59.7199 25.0809 59.1671 25.2742C58.4796 25.5058 57.7538 25.616 57.0252 25.5994ZM58.5433 23.9187C59.1059 23.9265 59.6653 23.8365 60.1944 23.6532C60.6474 23.4967 61.0718 23.2727 61.4518 22.9894C61.0332 22.5381 60.5965 22.0654 60.1417 21.5716C59.687 21.0777 59.2591 20.6056 58.858 20.1551C58.3681 19.6028 57.8926 19.051 57.4314 18.4996C56.9702 17.9482 56.5113 17.4128 56.0547 16.8933C55.6122 17.2802 55.2716 17.762 55.0607 18.2992C54.8507 18.8366 54.7441 19.406 54.746 19.9798C54.746 21.1162 55.0995 22.0566 55.8066 22.8009C56.5136 23.5452 57.4258 23.9178 58.5433 23.9187ZM58.6819 15.1143C59.2876 14.6197 59.7899 14.0197 60.1625 13.346C60.4722 12.7325 60.6288 12.0586 60.62 11.3773C60.62 10.7259 60.4453 10.1948 60.096 9.78418C59.921 9.57988 59.6984 9.41781 59.446 9.31104C59.1936 9.20428 58.9186 9.1558 58.6431 9.16952C58.3717 9.16395 58.1023 9.21497 57.8536 9.31905C57.6048 9.42312 57.3827 9.57776 57.2026 9.77223C56.8112 10.1915 56.6045 10.7396 56.6259 11.3016C56.6308 11.712 56.7062 12.1188 56.8491 12.5057C57.0486 13.0161 57.3191 13.4983 57.6532 13.9394C57.7586 14.0722 57.8972 14.2328 58.0691 14.416C58.241 14.5992 58.4476 14.8302 58.675 15.1143H58.6819Z" fill="url(#paint9_linear)"/>
<path d="M51.6018 75.0696V74.3686L53.1407 73.8071C54.7026 73.1999 55.4841 72.0051 55.485 70.2226V33.6072C55.485 31.738 54.7036 30.5458 53.1407 30.0307L51.6018 29.4718V28.7695H70.9443C76.1201 28.7695 80.5768 29.6935 84.3144 31.5415C88.052 33.3894 90.9338 36.0322 92.9598 39.4697C94.9866 42.9063 96.0001 47.0337 96.0001 51.8518C96.0001 56.7629 94.9011 60.9487 92.7033 64.4093C90.5054 67.8698 87.4407 70.5125 83.5089 72.3375C79.5772 74.1606 74.9491 75.0722 69.6245 75.0722L51.6018 75.0696ZM66.4747 73.6677H69.6245C73.1422 73.6677 75.9754 73.0012 78.1243 71.6684C80.2732 70.3355 81.8485 68.0901 82.8504 64.9323C83.8504 61.7754 84.3509 57.4387 84.3518 51.9222C84.3528 46.4057 83.8523 42.069 82.8504 38.9121C81.8476 35.756 80.2967 33.5111 78.1978 32.1774C76.0988 30.8436 73.339 30.1772 69.9184 30.1781H66.4747V73.6677Z" fill="white"/>
<path d="M48.0471 61.8936H0.981553C0.485401 61.8936 0.0831909 62.2787 0.0831909 62.7538V74.2093C0.0831909 74.6845 0.485401 75.0696 0.981553 75.0696H48.0471C48.5433 75.0696 48.9455 74.6845 48.9455 74.2093V62.7538C48.9455 62.2787 48.5433 61.8936 48.0471 61.8936Z" fill="#3C3231"/>
<path d="M29.4574 67.9497H19.7349C19.4493 67.9497 19.2178 68.1714 19.2178 68.4449V69.3622C19.2178 69.6357 19.4493 69.8574 19.7349 69.8574H29.4574C29.743 69.8574 29.9746 69.6357 29.9746 69.3622V68.4449C29.9746 68.1714 29.743 67.9497 29.4574 67.9497Z" fill="url(#paint10_linear)"/>
<path d="M48.0471 45.8848H0.981553C0.485401 45.8848 0.0831909 46.2699 0.0831909 46.745V58.2006C0.0831909 58.6757 0.485401 59.0608 0.981553 59.0608H48.0471C48.5433 59.0608 48.9455 58.6757 48.9455 58.2006V46.745C48.9455 46.2699 48.5433 45.8848 48.0471 45.8848Z" fill="#4A3837"/>
<path d="M29.4574 51.9409H19.7349C19.4493 51.9409 19.2178 52.1626 19.2178 52.4361V53.3535C19.2178 53.6269 19.4493 53.8486 19.7349 53.8486H29.4574C29.743 53.8486 29.9746 53.6269 29.9746 53.3535V52.4361C29.9746 52.1626 29.743 51.9409 29.4574 51.9409Z" fill="url(#paint11_linear)"/>
<defs>
<linearGradient id="paint0_linear" x1="-1.22968" y1="90.2451" x2="9.43661" y2="79.1078" gradientUnits="userSpaceOnUse">
<stop offset="0.01" stop-color="#7E7E7E"/>
<stop offset="0.12" stop-color="#8D8D8D"/>
<stop offset="0.34" stop-color="#B5B4B4"/>
<stop offset="0.51" stop-color="#DAD9D8"/>
<stop offset="0.63" stop-color="#D0CFCE"/>
<stop offset="0.82" stop-color="#B5B5B4"/>
<stop offset="1" stop-color="#959595"/>
</linearGradient>
<linearGradient id="paint1_linear" x1="644.476" y1="5331.07" x2="1084.35" y2="4874.55" gradientUnits="userSpaceOnUse">
<stop offset="0.01" stop-color="#7E7E7E"/>
<stop offset="0.12" stop-color="#8D8D8D"/>
<stop offset="0.34" stop-color="#B5B4B4"/>
<stop offset="0.51" stop-color="#DAD9D8"/>
<stop offset="0.63" stop-color="#D0CFCE"/>
<stop offset="0.82" stop-color="#B5B5B4"/>
<stop offset="1" stop-color="#959595"/>
</linearGradient>
<linearGradient id="paint2_linear" x1="1176.29" y1="5149.94" x2="1574.94" y2="4771.65" gradientUnits="userSpaceOnUse">
<stop offset="0.01" stop-color="#7E7E7E"/>
<stop offset="0.12" stop-color="#8D8D8D"/>
<stop offset="0.34" stop-color="#B5B4B4"/>
<stop offset="0.51" stop-color="#DAD9D8"/>
<stop offset="0.63" stop-color="#D0CFCE"/>
<stop offset="0.82" stop-color="#B5B5B4"/>
<stop offset="1" stop-color="#959595"/>
</linearGradient>
<linearGradient id="paint3_linear" x1="2036.94" y1="5347.64" x2="2471.47" y2="4895.59" gradientUnits="userSpaceOnUse">
<stop offset="0.01" stop-color="#7E7E7E"/>
<stop offset="0.12" stop-color="#8D8D8D"/>
<stop offset="0.34" stop-color="#B5B4B4"/>
<stop offset="0.51" stop-color="#DAD9D8"/>
<stop offset="0.63" stop-color="#D0CFCE"/>
<stop offset="0.82" stop-color="#B5B5B4"/>
<stop offset="1" stop-color="#959595"/>
</linearGradient>
<linearGradient id="paint4_linear" x1="1668.75" y1="7526.98" x2="2130.83" y2="7325.55" gradientUnits="userSpaceOnUse">
<stop offset="0.01" stop-color="#7E7E7E"/>
<stop offset="0.12" stop-color="#8D8D8D"/>
<stop offset="0.34" stop-color="#B5B4B4"/>
<stop offset="0.51" stop-color="#DAD9D8"/>
<stop offset="0.63" stop-color="#D0CFCE"/>
<stop offset="0.82" stop-color="#B5B5B4"/>
<stop offset="1" stop-color="#959595"/>
</linearGradient>
<linearGradient id="paint5_linear" x1="2244.93" y1="6669.36" x2="2678.02" y2="6428.28" gradientUnits="userSpaceOnUse">
<stop offset="0.01" stop-color="#7E7E7E"/>
<stop offset="0.12" stop-color="#8D8D8D"/>
<stop offset="0.34" stop-color="#B5B4B4"/>
<stop offset="0.51" stop-color="#DAD9D8"/>
<stop offset="0.63" stop-color="#D0CFCE"/>
<stop offset="0.82" stop-color="#B5B5B4"/>
<stop offset="1" stop-color="#959595"/>
</linearGradient>
<linearGradient id="paint6_linear" x1="3871.62" y1="5331.96" x2="4311.64" y2="4874.98" gradientUnits="userSpaceOnUse">
<stop offset="0.01" stop-color="#7E7E7E"/>
<stop offset="0.12" stop-color="#8D8D8D"/>
<stop offset="0.34" stop-color="#B5B4B4"/>
<stop offset="0.51" stop-color="#DAD9D8"/>
<stop offset="0.63" stop-color="#D0CFCE"/>
<stop offset="0.82" stop-color="#B5B5B4"/>
<stop offset="1" stop-color="#959595"/>
</linearGradient>
<linearGradient id="paint7_linear" x1="4051.67" y1="5149.94" x2="4450.31" y2="4771.88" gradientUnits="userSpaceOnUse">
<stop offset="0.01" stop-color="#7E7E7E"/>
<stop offset="0.12" stop-color="#8D8D8D"/>
<stop offset="0.34" stop-color="#B5B4B4"/>
<stop offset="0.51" stop-color="#DAD9D8"/>
<stop offset="0.63" stop-color="#D0CFCE"/>
<stop offset="0.82" stop-color="#B5B5B4"/>
<stop offset="1" stop-color="#959595"/>
</linearGradient>
<linearGradient id="paint8_linear" x1="4519.56" y1="5310.47" x2="4890.15" y2="4980.2" gradientUnits="userSpaceOnUse">
<stop offset="0.01" stop-color="#7E7E7E"/>
<stop offset="0.12" stop-color="#8D8D8D"/>
<stop offset="0.34" stop-color="#B5B4B4"/>
<stop offset="0.51" stop-color="#DAD9D8"/>
<stop offset="0.63" stop-color="#D0CFCE"/>
<stop offset="0.82" stop-color="#B5B5B4"/>
<stop offset="1" stop-color="#959595"/>
</linearGradient>
<linearGradient id="paint9_linear" x1="6759.25" y1="3271.35" x2="8322.24" y2="1707.82" gradientUnits="userSpaceOnUse">
<stop offset="0.01" stop-color="#7E7E7E"/>
<stop offset="0.12" stop-color="#8D8D8D"/>
<stop offset="0.34" stop-color="#B5B4B4"/>
<stop offset="0.51" stop-color="#DAD9D8"/>
<stop offset="0.63" stop-color="#D0CFCE"/>
<stop offset="0.82" stop-color="#B5B5B4"/>
<stop offset="1" stop-color="#959595"/>
</linearGradient>
<linearGradient id="paint10_linear" x1="1510.32" y1="1058.08" x2="2344.94" y2="1058.08" gradientUnits="userSpaceOnUse">
<stop offset="0.01" stop-color="#7E7E7E"/>
<stop offset="0.12" stop-color="#8D8D8D"/>
<stop offset="0.34" stop-color="#B5B4B4"/>
<stop offset="0.51" stop-color="#DAD9D8"/>
<stop offset="0.63" stop-color="#D0CFCE"/>
<stop offset="0.82" stop-color="#B5B5B4"/>
<stop offset="1" stop-color="#959595"/>
</linearGradient>
<linearGradient id="paint11_linear" x1="1510.32" y1="812.032" x2="2344.94" y2="812.032" gradientUnits="userSpaceOnUse">
<stop offset="0.01" stop-color="#7E7E7E"/>
<stop offset="0.12" stop-color="#8D8D8D"/>
<stop offset="0.34" stop-color="#B5B4B4"/>
<stop offset="0.51" stop-color="#DAD9D8"/>
<stop offset="0.63" stop-color="#D0CFCE"/>
<stop offset="0.82" stop-color="#B5B5B4"/>
<stop offset="1" stop-color="#959595"/>
</linearGradient>
</defs>
</svg>
